# xmcd
#
# Track frame offsets: 
#        150
#        24003
#        39928
#        55213
#        69925
#        83913
#        97703
#        113528
#        128328
#        143140
#
# Disc length: 2121 seconds
#
# Revision: 8
# Processed by: cddbd v1.5.1PL0 Copyright (c) Steve Scherf et al.
# Submitted via: ExactAudioCopy v0.95a5
#
DISCID=6608470a
DTITLE=Various Artist - Johnny Otis Presents: The Best of Rhythm and Bl
DTITLE=ues: One Hour Past Midnight
DYEAR=1998
DGENRE=Blues
TTITLE0=Louis Jordan - Saturday Night Fish Fry
TTITLE1=Johnny Otis - Harlem Nocturne
TTITLE2=Joe Turner - Honey, Hush
TTITLE3=Gatemouth Moore - I Ain't Mad At You, Pretty Baby
TTITLE4=Joe Liggins and the Honeydrippers - The Honeydripper (Part 2)
TTITLE5=Charles Brown - Merry Christmas, Baby
TTITLE6=Eddie "Cleanhead" Vinson - Kidney Stew Blues
TTITLE7=Pee Wee Crayton - Blues In the Ghetto
TTITLE8=Richard Berry - Doin' It
TTITLE9=Amos Milburn - One Hour Past Midnight
EXTD=LABEL =Delta Music Inc\nID =12194\nUPC =0181111-219426\nCOPYRI
EXTD=GHT =1998
EXTT0=JORDAN,LOUIS
EXTT1=OTIS,JOHNNY
EXTT2=TURNER,JOE
EXTT3=MOORE,GATEMOUTH
EXTT4=LIGGINS,JOE and THE HONEY
EXTT5=BROWN,CHARLES
EXTT6=Listed as "Eddie "Cleanhead" Vinson - Kidney" on the cd sleve, b
EXTT6=ut listed correctly as "Eddie "Cleanhead" Vinson - Kidney Stew" 
EXTT6=in the cd booklet.\n*****\nVINSON,EDDIE CLEANHEAD
EXTT7=CRAYTON,PEE WEE
EXTT8=BERRY,RICHARD
EXTT9=MILBURN,AMOS
PLAYORDER=
